<svg width="367" height="319" viewBox="0 0 367 319" fill="none" xmlns="http://www.w3.org/2000/svg">
<path fill-rule="evenodd" clip-rule="evenodd" d="M130 10L0.0961914 235H259.904L130 10ZM130 64.3807L47.1912 207.81H212.809L130 64.3807Z" fill="black"/>
<path fill-rule="evenodd" clip-rule="evenodd" d="M336.326 140.5C336.326 172.578 322.658 201.464 300.826 221.65V259.329C340.189 234.433 366.326 190.519 366.326 140.5C366.326 62.904 303.422 0 225.826 0C193.96 0 164.572 10.6087 141 28.4871L156.152 54.7303C175.162 39.2683 199.412 30 225.826 30C286.854 30 336.326 79.4725 336.326 140.5Z" fill="black"/>
<path fill-rule="evenodd" clip-rule="evenodd" d="M103 235.5V294.878V319H127.122H275.878H300V294.878V146.122V122H275.878H193.875L207.802 146.122H275.878V294.878H127.122V235.5H103Z" fill="black"/>
</svg>
